G75*
%MOIN*%
%OFA0B0*%
%FSLAX25Y25*%
%IPPOS*%
%LPD*%
%AMOC8*
5,1,8,0,0,1.08239X$1,22.5*
%
%ADD10C,0.01000*%
%ADD11C,0.00500*%
%ADD12C,0.00800*%
%ADD13C,0.00100*%
%ADD14C,0.00600*%
%ADD15C,0.00472*%
%ADD16C,0.00000*%
D10*
X0001500Y0001500D02*
X0001500Y0101461D01*
X0160201Y0101461D01*
X0160201Y0001500D01*
X0001500Y0001500D01*
D11*
X0041750Y0021750D02*
X0041750Y0025978D01*
X0043864Y0025978D01*
X0044569Y0025273D01*
X0044569Y0023864D01*
X0043864Y0023159D01*
X0041750Y0023159D01*
X0043159Y0023159D02*
X0044569Y0021750D01*
X0046100Y0021750D02*
X0048919Y0021750D01*
X0047510Y0021750D02*
X0047510Y0025978D01*
X0046100Y0024569D01*
X0066657Y0050890D02*
X0009177Y0050890D01*
X0009116Y0050791D02*
X0009184Y0086295D01*
X0009177Y0086323D02*
X0066657Y0086323D01*
X0066657Y0050890D01*
X0096815Y0051185D02*
X0096815Y0011815D01*
X0136185Y0011815D01*
X0136185Y0051185D01*
X0096815Y0051185D01*
X0129250Y0078850D02*
X0132253Y0078850D01*
X0133854Y0078850D02*
X0136856Y0078850D01*
X0138458Y0078850D02*
X0140710Y0078850D01*
X0141460Y0079601D01*
X0141460Y0082603D01*
X0140710Y0083354D01*
X0138458Y0083354D01*
X0138458Y0078850D01*
X0135355Y0081102D02*
X0133854Y0081102D01*
X0133854Y0083354D02*
X0133854Y0078850D01*
X0129250Y0078850D02*
X0129250Y0083354D01*
X0133854Y0083354D02*
X0136856Y0083354D01*
X0143062Y0081853D02*
X0144563Y0083354D01*
X0144563Y0078850D01*
X0143062Y0078850D02*
X0146064Y0078850D01*
D12*
X0126500Y0084000D02*
X0126500Y0069000D01*
D13*
X0126829Y0084309D02*
X0126109Y0083769D01*
X0126110Y0083770D02*
X0125929Y0084003D01*
X0125743Y0084231D01*
X0125551Y0084455D01*
X0125354Y0084674D01*
X0125152Y0084888D01*
X0124944Y0085097D01*
X0124731Y0085300D01*
X0124514Y0085499D01*
X0124291Y0085692D01*
X0124064Y0085880D01*
X0123833Y0086062D01*
X0123597Y0086239D01*
X0123356Y0086409D01*
X0123112Y0086574D01*
X0122864Y0086732D01*
X0122612Y0086885D01*
X0122356Y0087031D01*
X0122097Y0087171D01*
X0121834Y0087305D01*
X0121569Y0087432D01*
X0121300Y0087553D01*
X0121028Y0087667D01*
X0120754Y0087774D01*
X0120477Y0087875D01*
X0120198Y0087969D01*
X0119916Y0088056D01*
X0119633Y0088136D01*
X0119347Y0088209D01*
X0119060Y0088275D01*
X0118771Y0088334D01*
X0118481Y0088386D01*
X0118190Y0088431D01*
X0117898Y0088469D01*
X0117605Y0088499D01*
X0117311Y0088523D01*
X0117017Y0088539D01*
X0116723Y0088548D01*
X0116428Y0088550D01*
X0116133Y0088544D01*
X0115839Y0088532D01*
X0115545Y0088512D01*
X0115252Y0088485D01*
X0114959Y0088451D01*
X0114667Y0088410D01*
X0114377Y0088361D01*
X0114087Y0088306D01*
X0113800Y0088244D01*
X0113513Y0088174D01*
X0113229Y0088097D01*
X0112946Y0088014D01*
X0112666Y0087924D01*
X0112388Y0087827D01*
X0112112Y0087723D01*
X0111839Y0087612D01*
X0111569Y0087495D01*
X0111301Y0087371D01*
X0111037Y0087241D01*
X0110776Y0087104D01*
X0110519Y0086961D01*
X0110265Y0086811D01*
X0110014Y0086656D01*
X0109768Y0086494D01*
X0109526Y0086327D01*
X0109288Y0086153D01*
X0109054Y0085974D01*
X0108824Y0085789D01*
X0108600Y0085599D01*
X0108379Y0085403D01*
X0108164Y0085202D01*
X0107954Y0084995D01*
X0107749Y0084784D01*
X0107549Y0084567D01*
X0107354Y0084346D01*
X0107165Y0084120D01*
X0106982Y0083890D01*
X0106804Y0083655D01*
X0106632Y0083415D01*
X0106466Y0083172D01*
X0106306Y0082925D01*
X0106152Y0082674D01*
X0106004Y0082419D01*
X0105862Y0082160D01*
X0105727Y0081899D01*
X0105598Y0081634D01*
X0105476Y0081366D01*
X0105360Y0081095D01*
X0105251Y0080821D01*
X0105149Y0080545D01*
X0105054Y0080266D01*
X0104965Y0079985D01*
X0104883Y0079702D01*
X0104808Y0079417D01*
X0104741Y0079130D01*
X0104680Y0078842D01*
X0104626Y0078552D01*
X0104579Y0078261D01*
X0104540Y0077969D01*
X0104508Y0077677D01*
X0104482Y0077383D01*
X0104464Y0077089D01*
X0104454Y0076795D01*
X0104450Y0076500D01*
X0104454Y0076205D01*
X0104464Y0075911D01*
X0104482Y0075617D01*
X0104508Y0075323D01*
X0104540Y0075031D01*
X0104579Y0074739D01*
X0104626Y0074448D01*
X0104680Y0074158D01*
X0104741Y0073870D01*
X0104808Y0073583D01*
X0104883Y0073298D01*
X0104965Y0073015D01*
X0105054Y0072734D01*
X0105149Y0072455D01*
X0105251Y0072179D01*
X0105360Y0071905D01*
X0105476Y0071634D01*
X0105598Y0071366D01*
X0105727Y0071101D01*
X0105862Y0070840D01*
X0106004Y0070581D01*
X0106152Y0070326D01*
X0106306Y0070075D01*
X0106466Y0069828D01*
X0106632Y0069585D01*
X0106804Y0069345D01*
X0106982Y0069110D01*
X0107165Y0068880D01*
X0107354Y0068654D01*
X0107549Y0068433D01*
X0107749Y0068216D01*
X0107954Y0068005D01*
X0108164Y0067798D01*
X0108379Y0067597D01*
X0108600Y0067401D01*
X0108824Y0067211D01*
X0109054Y0067026D01*
X0109288Y0066847D01*
X0109526Y0066673D01*
X0109768Y0066506D01*
X0110014Y0066344D01*
X0110265Y0066189D01*
X0110519Y0066039D01*
X0110776Y0065896D01*
X0111037Y0065759D01*
X0111301Y0065629D01*
X0111569Y0065505D01*
X0111839Y0065388D01*
X0112112Y0065277D01*
X0112388Y0065173D01*
X0112666Y0065076D01*
X0112946Y0064986D01*
X0113229Y0064903D01*
X0113513Y0064826D01*
X0113800Y0064756D01*
X0114087Y0064694D01*
X0114377Y0064639D01*
X0114667Y0064590D01*
X0114959Y0064549D01*
X0115252Y0064515D01*
X0115545Y0064488D01*
X0115839Y0064468D01*
X0116133Y0064456D01*
X0116428Y0064450D01*
X0116723Y0064452D01*
X0117017Y0064461D01*
X0117311Y0064477D01*
X0117605Y0064501D01*
X0117898Y0064531D01*
X0118190Y0064569D01*
X0118481Y0064614D01*
X0118771Y0064666D01*
X0119060Y0064725D01*
X0119347Y0064791D01*
X0119633Y0064864D01*
X0119916Y0064944D01*
X0120198Y0065031D01*
X0120477Y0065125D01*
X0120754Y0065226D01*
X0121028Y0065333D01*
X0121300Y0065447D01*
X0121569Y0065568D01*
X0121834Y0065695D01*
X0122097Y0065829D01*
X0122356Y0065969D01*
X0122612Y0066115D01*
X0122864Y0066268D01*
X0123112Y0066426D01*
X0123356Y0066591D01*
X0123597Y0066761D01*
X0123833Y0066938D01*
X0124064Y0067120D01*
X0124291Y0067308D01*
X0124514Y0067501D01*
X0124731Y0067700D01*
X0124944Y0067903D01*
X0125152Y0068112D01*
X0125354Y0068326D01*
X0125551Y0068545D01*
X0125743Y0068769D01*
X0125929Y0068997D01*
X0126110Y0069230D01*
X0126829Y0068691D01*
X0126830Y0068690D01*
X0126636Y0068440D01*
X0126436Y0068194D01*
X0126230Y0067954D01*
X0126018Y0067719D01*
X0125800Y0067489D01*
X0125577Y0067264D01*
X0125349Y0067045D01*
X0125115Y0066831D01*
X0124876Y0066623D01*
X0124632Y0066421D01*
X0124383Y0066226D01*
X0124129Y0066036D01*
X0123871Y0065853D01*
X0123609Y0065676D01*
X0123342Y0065505D01*
X0123071Y0065341D01*
X0122796Y0065184D01*
X0122518Y0065033D01*
X0122235Y0064889D01*
X0121950Y0064753D01*
X0121661Y0064623D01*
X0121369Y0064500D01*
X0121074Y0064385D01*
X0120777Y0064277D01*
X0120476Y0064176D01*
X0120174Y0064082D01*
X0119869Y0063996D01*
X0119562Y0063917D01*
X0119254Y0063846D01*
X0118944Y0063783D01*
X0118632Y0063727D01*
X0118319Y0063678D01*
X0118005Y0063638D01*
X0117690Y0063605D01*
X0117374Y0063580D01*
X0117058Y0063562D01*
X0116742Y0063552D01*
X0116425Y0063550D01*
X0116108Y0063556D01*
X0115792Y0063569D01*
X0115476Y0063591D01*
X0115161Y0063619D01*
X0114846Y0063656D01*
X0114533Y0063700D01*
X0114220Y0063752D01*
X0113909Y0063812D01*
X0113600Y0063879D01*
X0113292Y0063954D01*
X0112986Y0064036D01*
X0112683Y0064125D01*
X0112381Y0064222D01*
X0112082Y0064327D01*
X0111786Y0064439D01*
X0111492Y0064557D01*
X0111202Y0064683D01*
X0110915Y0064816D01*
X0110630Y0064957D01*
X0110350Y0065104D01*
X0110073Y0065257D01*
X0109800Y0065418D01*
X0109531Y0065585D01*
X0109266Y0065759D01*
X0109006Y0065939D01*
X0108750Y0066125D01*
X0108499Y0066318D01*
X0108252Y0066516D01*
X0108010Y0066721D01*
X0107774Y0066931D01*
X0107542Y0067148D01*
X0107317Y0067370D01*
X0107096Y0067597D01*
X0106881Y0067829D01*
X0106672Y0068067D01*
X0106469Y0068310D01*
X0106271Y0068558D01*
X0106080Y0068810D01*
X0105895Y0069067D01*
X0105717Y0069329D01*
X0105545Y0069595D01*
X0105379Y0069864D01*
X0105220Y0070138D01*
X0105068Y0070416D01*
X0104923Y0070697D01*
X0104784Y0070982D01*
X0104653Y0071270D01*
X0104529Y0071562D01*
X0104411Y0071856D01*
X0104301Y0072153D01*
X0104199Y0072452D01*
X0104104Y0072754D01*
X0104016Y0073058D01*
X0103935Y0073365D01*
X0103862Y0073673D01*
X0103797Y0073983D01*
X0103739Y0074294D01*
X0103689Y0074607D01*
X0103647Y0074921D01*
X0103612Y0075235D01*
X0103585Y0075551D01*
X0103565Y0075867D01*
X0103554Y0076183D01*
X0103550Y0076500D01*
X0103554Y0076817D01*
X0103565Y0077133D01*
X0103585Y0077449D01*
X0103612Y0077765D01*
X0103647Y0078079D01*
X0103689Y0078393D01*
X0103739Y0078706D01*
X0103797Y0079017D01*
X0103862Y0079327D01*
X0103935Y0079635D01*
X0104016Y0079942D01*
X0104104Y0080246D01*
X0104199Y0080548D01*
X0104301Y0080847D01*
X0104411Y0081144D01*
X0104529Y0081438D01*
X0104653Y0081730D01*
X0104784Y0082018D01*
X0104923Y0082303D01*
X0105068Y0082584D01*
X0105220Y0082862D01*
X0105379Y0083136D01*
X0105545Y0083405D01*
X0105717Y0083671D01*
X0105895Y0083933D01*
X0106080Y0084190D01*
X0106271Y0084442D01*
X0106469Y0084690D01*
X0106672Y0084933D01*
X0106881Y0085171D01*
X0107096Y0085403D01*
X0107317Y0085630D01*
X0107542Y0085852D01*
X0107774Y0086069D01*
X0108010Y0086279D01*
X0108252Y0086484D01*
X0108499Y0086682D01*
X0108750Y0086875D01*
X0109006Y0087061D01*
X0109266Y0087241D01*
X0109531Y0087415D01*
X0109800Y0087582D01*
X0110073Y0087743D01*
X0110350Y0087896D01*
X0110630Y0088043D01*
X0110915Y0088184D01*
X0111202Y0088317D01*
X0111492Y0088443D01*
X0111786Y0088561D01*
X0112082Y0088673D01*
X0112381Y0088778D01*
X0112683Y0088875D01*
X0112986Y0088964D01*
X0113292Y0089046D01*
X0113600Y0089121D01*
X0113909Y0089188D01*
X0114220Y0089248D01*
X0114533Y0089300D01*
X0114846Y0089344D01*
X0115161Y0089381D01*
X0115476Y0089409D01*
X0115792Y0089431D01*
X0116108Y0089444D01*
X0116425Y0089450D01*
X0116742Y0089448D01*
X0117058Y0089438D01*
X0117374Y0089420D01*
X0117690Y0089395D01*
X0118005Y0089362D01*
X0118319Y0089322D01*
X0118632Y0089273D01*
X0118944Y0089217D01*
X0119254Y0089154D01*
X0119562Y0089083D01*
X0119869Y0089004D01*
X0120174Y0088918D01*
X0120476Y0088824D01*
X0120777Y0088723D01*
X0121074Y0088615D01*
X0121369Y0088500D01*
X0121661Y0088377D01*
X0121950Y0088247D01*
X0122235Y0088111D01*
X0122518Y0087967D01*
X0122796Y0087816D01*
X0123071Y0087659D01*
X0123342Y0087495D01*
X0123609Y0087324D01*
X0123871Y0087147D01*
X0124129Y0086964D01*
X0124383Y0086774D01*
X0124632Y0086579D01*
X0124876Y0086377D01*
X0125115Y0086169D01*
X0125349Y0085955D01*
X0125577Y0085736D01*
X0125800Y0085511D01*
X0126018Y0085281D01*
X0126230Y0085046D01*
X0126436Y0084806D01*
X0126636Y0084560D01*
X0126830Y0084310D01*
X0126755Y0084254D01*
X0126562Y0084502D01*
X0126363Y0084746D01*
X0126159Y0084984D01*
X0125949Y0085218D01*
X0125733Y0085446D01*
X0125511Y0085669D01*
X0125284Y0085887D01*
X0125052Y0086099D01*
X0124815Y0086305D01*
X0124573Y0086506D01*
X0124325Y0086700D01*
X0124074Y0086888D01*
X0123817Y0087070D01*
X0123557Y0087246D01*
X0123292Y0087415D01*
X0123023Y0087578D01*
X0122750Y0087734D01*
X0122474Y0087884D01*
X0122194Y0088026D01*
X0121910Y0088162D01*
X0121623Y0088291D01*
X0121333Y0088413D01*
X0121041Y0088527D01*
X0120745Y0088635D01*
X0120447Y0088735D01*
X0120147Y0088828D01*
X0119844Y0088913D01*
X0119540Y0088991D01*
X0119234Y0089062D01*
X0118926Y0089125D01*
X0118616Y0089181D01*
X0118306Y0089229D01*
X0117994Y0089269D01*
X0117681Y0089302D01*
X0117368Y0089327D01*
X0117054Y0089344D01*
X0116740Y0089354D01*
X0116425Y0089356D01*
X0116111Y0089350D01*
X0115797Y0089337D01*
X0115483Y0089316D01*
X0115170Y0089287D01*
X0114858Y0089251D01*
X0114547Y0089207D01*
X0114237Y0089155D01*
X0113928Y0089096D01*
X0113621Y0089029D01*
X0113315Y0088955D01*
X0113012Y0088874D01*
X0112710Y0088785D01*
X0112411Y0088688D01*
X0112114Y0088585D01*
X0111820Y0088474D01*
X0111529Y0088356D01*
X0111240Y0088231D01*
X0110955Y0088099D01*
X0110673Y0087960D01*
X0110395Y0087814D01*
X0110120Y0087661D01*
X0109849Y0087502D01*
X0109582Y0087336D01*
X0109319Y0087163D01*
X0109060Y0086985D01*
X0108806Y0086800D01*
X0108557Y0086608D01*
X0108312Y0086411D01*
X0108072Y0086208D01*
X0107837Y0085999D01*
X0107607Y0085784D01*
X0107383Y0085564D01*
X0107164Y0085339D01*
X0106951Y0085108D01*
X0106743Y0084872D01*
X0106541Y0084630D01*
X0106346Y0084385D01*
X0106156Y0084134D01*
X0105972Y0083879D01*
X0105795Y0083619D01*
X0105624Y0083355D01*
X0105460Y0083087D01*
X0105302Y0082815D01*
X0105151Y0082540D01*
X0105007Y0082260D01*
X0104869Y0081978D01*
X0104739Y0081692D01*
X0104615Y0081403D01*
X0104499Y0081110D01*
X0104390Y0080816D01*
X0104288Y0080518D01*
X0104194Y0080219D01*
X0104106Y0079916D01*
X0104026Y0079612D01*
X0103954Y0079307D01*
X0103889Y0078999D01*
X0103832Y0078690D01*
X0103782Y0078379D01*
X0103740Y0078068D01*
X0103705Y0077755D01*
X0103679Y0077442D01*
X0103659Y0077128D01*
X0103648Y0076814D01*
X0103644Y0076500D01*
X0103648Y0076186D01*
X0103659Y0075872D01*
X0103679Y0075558D01*
X0103705Y0075245D01*
X0103740Y0074932D01*
X0103782Y0074621D01*
X0103832Y0074310D01*
X0103889Y0074001D01*
X0103954Y0073693D01*
X0104026Y0073388D01*
X0104106Y0073084D01*
X0104194Y0072781D01*
X0104288Y0072482D01*
X0104390Y0072184D01*
X0104499Y0071890D01*
X0104615Y0071597D01*
X0104739Y0071308D01*
X0104869Y0071022D01*
X0105007Y0070740D01*
X0105151Y0070460D01*
X0105302Y0070185D01*
X0105460Y0069913D01*
X0105624Y0069645D01*
X0105795Y0069381D01*
X0105972Y0069121D01*
X0106156Y0068866D01*
X0106346Y0068615D01*
X0106541Y0068370D01*
X0106743Y0068128D01*
X0106951Y0067892D01*
X0107164Y0067661D01*
X0107383Y0067436D01*
X0107607Y0067216D01*
X0107837Y0067001D01*
X0108072Y0066792D01*
X0108312Y0066589D01*
X0108557Y0066392D01*
X0108806Y0066200D01*
X0109060Y0066015D01*
X0109319Y0065837D01*
X0109582Y0065664D01*
X0109849Y0065498D01*
X0110120Y0065339D01*
X0110395Y0065186D01*
X0110673Y0065040D01*
X0110955Y0064901D01*
X0111240Y0064769D01*
X0111529Y0064644D01*
X0111820Y0064526D01*
X0112114Y0064415D01*
X0112411Y0064312D01*
X0112710Y0064215D01*
X0113012Y0064126D01*
X0113315Y0064045D01*
X0113621Y0063971D01*
X0113928Y0063904D01*
X0114237Y0063845D01*
X0114547Y0063793D01*
X0114858Y0063749D01*
X0115170Y0063713D01*
X0115483Y0063684D01*
X0115797Y0063663D01*
X0116111Y0063650D01*
X0116425Y0063644D01*
X0116740Y0063646D01*
X0117054Y0063656D01*
X0117368Y0063673D01*
X0117681Y0063698D01*
X0117994Y0063731D01*
X0118306Y0063771D01*
X0118616Y0063819D01*
X0118926Y0063875D01*
X0119234Y0063938D01*
X0119540Y0064009D01*
X0119844Y0064087D01*
X0120147Y0064172D01*
X0120447Y0064265D01*
X0120745Y0064365D01*
X0121041Y0064473D01*
X0121333Y0064587D01*
X0121623Y0064709D01*
X0121910Y0064838D01*
X0122194Y0064974D01*
X0122474Y0065116D01*
X0122750Y0065266D01*
X0123023Y0065422D01*
X0123292Y0065585D01*
X0123557Y0065754D01*
X0123817Y0065930D01*
X0124074Y0066112D01*
X0124325Y0066300D01*
X0124573Y0066494D01*
X0124815Y0066695D01*
X0125052Y0066901D01*
X0125284Y0067113D01*
X0125511Y0067331D01*
X0125733Y0067554D01*
X0125949Y0067782D01*
X0126159Y0068016D01*
X0126363Y0068254D01*
X0126562Y0068498D01*
X0126755Y0068746D01*
X0126680Y0068803D01*
X0126488Y0068556D01*
X0126291Y0068314D01*
X0126088Y0068077D01*
X0125879Y0067846D01*
X0125665Y0067619D01*
X0125445Y0067397D01*
X0125220Y0067181D01*
X0124989Y0066971D01*
X0124754Y0066766D01*
X0124513Y0066567D01*
X0124268Y0066374D01*
X0124018Y0066188D01*
X0123764Y0066007D01*
X0123505Y0065832D01*
X0123242Y0065664D01*
X0122975Y0065503D01*
X0122704Y0065348D01*
X0122430Y0065199D01*
X0122152Y0065058D01*
X0121870Y0064923D01*
X0121586Y0064795D01*
X0121298Y0064674D01*
X0121007Y0064560D01*
X0120714Y0064454D01*
X0120418Y0064354D01*
X0120120Y0064262D01*
X0119820Y0064177D01*
X0119517Y0064100D01*
X0119213Y0064030D01*
X0118908Y0063967D01*
X0118601Y0063912D01*
X0118292Y0063864D01*
X0117983Y0063824D01*
X0117672Y0063792D01*
X0117361Y0063767D01*
X0117050Y0063750D01*
X0116738Y0063740D01*
X0116426Y0063738D01*
X0116114Y0063744D01*
X0115802Y0063757D01*
X0115491Y0063778D01*
X0115180Y0063806D01*
X0114870Y0063843D01*
X0114561Y0063886D01*
X0114253Y0063937D01*
X0113946Y0063996D01*
X0113642Y0064062D01*
X0113338Y0064136D01*
X0113037Y0064217D01*
X0112738Y0064305D01*
X0112441Y0064401D01*
X0112146Y0064504D01*
X0111854Y0064614D01*
X0111565Y0064731D01*
X0111278Y0064855D01*
X0110995Y0064986D01*
X0110715Y0065124D01*
X0110439Y0065269D01*
X0110166Y0065421D01*
X0109897Y0065579D01*
X0109632Y0065744D01*
X0109371Y0065915D01*
X0109115Y0066092D01*
X0108862Y0066276D01*
X0108615Y0066466D01*
X0108372Y0066661D01*
X0108133Y0066863D01*
X0107900Y0067071D01*
X0107672Y0067284D01*
X0107450Y0067502D01*
X0107232Y0067726D01*
X0107021Y0067955D01*
X0106815Y0068190D01*
X0106614Y0068429D01*
X0106420Y0068673D01*
X0106232Y0068922D01*
X0106049Y0069175D01*
X0105873Y0069433D01*
X0105704Y0069695D01*
X0105541Y0069961D01*
X0105384Y0070231D01*
X0105234Y0070505D01*
X0105091Y0070782D01*
X0104954Y0071062D01*
X0104825Y0071346D01*
X0104702Y0071633D01*
X0104587Y0071923D01*
X0104479Y0072216D01*
X0104377Y0072511D01*
X0104283Y0072809D01*
X0104197Y0073109D01*
X0104118Y0073410D01*
X0104046Y0073714D01*
X0103981Y0074019D01*
X0103924Y0074326D01*
X0103875Y0074634D01*
X0103833Y0074944D01*
X0103799Y0075254D01*
X0103772Y0075565D01*
X0103753Y0075876D01*
X0103742Y0076188D01*
X0103738Y0076500D01*
X0103742Y0076812D01*
X0103753Y0077124D01*
X0103772Y0077435D01*
X0103799Y0077746D01*
X0103833Y0078056D01*
X0103875Y0078366D01*
X0103924Y0078674D01*
X0103981Y0078981D01*
X0104046Y0079286D01*
X0104118Y0079590D01*
X0104197Y0079891D01*
X0104283Y0080191D01*
X0104377Y0080489D01*
X0104479Y0080784D01*
X0104587Y0081077D01*
X0104702Y0081367D01*
X0104825Y0081654D01*
X0104954Y0081938D01*
X0105091Y0082218D01*
X0105234Y0082495D01*
X0105384Y0082769D01*
X0105541Y0083039D01*
X0105704Y0083305D01*
X0105873Y0083567D01*
X0106049Y0083825D01*
X0106232Y0084078D01*
X0106420Y0084327D01*
X0106614Y0084571D01*
X0106815Y0084810D01*
X0107021Y0085045D01*
X0107232Y0085274D01*
X0107450Y0085498D01*
X0107672Y0085716D01*
X0107900Y0085929D01*
X0108133Y0086137D01*
X0108372Y0086339D01*
X0108615Y0086534D01*
X0108862Y0086724D01*
X0109115Y0086908D01*
X0109371Y0087085D01*
X0109632Y0087256D01*
X0109897Y0087421D01*
X0110166Y0087579D01*
X0110439Y0087731D01*
X0110715Y0087876D01*
X0110995Y0088014D01*
X0111278Y0088145D01*
X0111565Y0088269D01*
X0111854Y0088386D01*
X0112146Y0088496D01*
X0112441Y0088599D01*
X0112738Y0088695D01*
X0113037Y0088783D01*
X0113338Y0088864D01*
X0113642Y0088938D01*
X0113946Y0089004D01*
X0114253Y0089063D01*
X0114561Y0089114D01*
X0114870Y0089157D01*
X0115180Y0089194D01*
X0115491Y0089222D01*
X0115802Y0089243D01*
X0116114Y0089256D01*
X0116426Y0089262D01*
X0116738Y0089260D01*
X0117050Y0089250D01*
X0117361Y0089233D01*
X0117672Y0089208D01*
X0117983Y0089176D01*
X0118292Y0089136D01*
X0118601Y0089088D01*
X0118908Y0089033D01*
X0119213Y0088970D01*
X0119517Y0088900D01*
X0119820Y0088823D01*
X0120120Y0088738D01*
X0120418Y0088646D01*
X0120714Y0088546D01*
X0121007Y0088440D01*
X0121298Y0088326D01*
X0121586Y0088205D01*
X0121870Y0088077D01*
X0122152Y0087942D01*
X0122430Y0087801D01*
X0122704Y0087652D01*
X0122975Y0087497D01*
X0123242Y0087336D01*
X0123505Y0087168D01*
X0123764Y0086993D01*
X0124018Y0086812D01*
X0124268Y0086626D01*
X0124513Y0086433D01*
X0124754Y0086234D01*
X0124989Y0086029D01*
X0125220Y0085819D01*
X0125445Y0085603D01*
X0125665Y0085381D01*
X0125879Y0085154D01*
X0126088Y0084923D01*
X0126291Y0084686D01*
X0126488Y0084444D01*
X0126680Y0084197D01*
X0126604Y0084141D01*
X0126414Y0084386D01*
X0126219Y0084626D01*
X0126017Y0084861D01*
X0125810Y0085091D01*
X0125597Y0085316D01*
X0125379Y0085536D01*
X0125155Y0085750D01*
X0124926Y0085959D01*
X0124693Y0086162D01*
X0124454Y0086360D01*
X0124211Y0086551D01*
X0123962Y0086737D01*
X0123710Y0086916D01*
X0123453Y0087089D01*
X0123192Y0087256D01*
X0122927Y0087417D01*
X0122658Y0087570D01*
X0122386Y0087718D01*
X0122110Y0087858D01*
X0121830Y0087992D01*
X0121548Y0088119D01*
X0121262Y0088239D01*
X0120974Y0088352D01*
X0120683Y0088458D01*
X0120389Y0088556D01*
X0120093Y0088648D01*
X0119795Y0088732D01*
X0119495Y0088809D01*
X0119193Y0088878D01*
X0118890Y0088941D01*
X0118585Y0088995D01*
X0118279Y0089043D01*
X0117971Y0089082D01*
X0117663Y0089114D01*
X0117355Y0089139D01*
X0117045Y0089156D01*
X0116736Y0089166D01*
X0116426Y0089168D01*
X0116116Y0089162D01*
X0115807Y0089149D01*
X0115498Y0089128D01*
X0115189Y0089100D01*
X0114882Y0089064D01*
X0114575Y0089021D01*
X0114269Y0088970D01*
X0113965Y0088912D01*
X0113662Y0088846D01*
X0113361Y0088773D01*
X0113062Y0088693D01*
X0112765Y0088605D01*
X0112470Y0088510D01*
X0112178Y0088408D01*
X0111888Y0088299D01*
X0111601Y0088182D01*
X0111317Y0088059D01*
X0111036Y0087929D01*
X0110758Y0087792D01*
X0110484Y0087648D01*
X0110213Y0087498D01*
X0109946Y0087341D01*
X0109683Y0087177D01*
X0109424Y0087007D01*
X0109169Y0086831D01*
X0108918Y0086649D01*
X0108673Y0086460D01*
X0108431Y0086266D01*
X0108195Y0086066D01*
X0107964Y0085860D01*
X0107737Y0085648D01*
X0107516Y0085431D01*
X0107301Y0085209D01*
X0107090Y0084982D01*
X0106886Y0084749D01*
X0106687Y0084511D01*
X0106494Y0084269D01*
X0106307Y0084022D01*
X0106126Y0083771D01*
X0105952Y0083515D01*
X0105783Y0083255D01*
X0105621Y0082991D01*
X0105466Y0082723D01*
X0105317Y0082451D01*
X0105175Y0082176D01*
X0105039Y0081897D01*
X0104911Y0081616D01*
X0104789Y0081331D01*
X0104675Y0081043D01*
X0104567Y0080752D01*
X0104467Y0080459D01*
X0104373Y0080164D01*
X0104287Y0079866D01*
X0104209Y0079567D01*
X0104138Y0079265D01*
X0104074Y0078962D01*
X0104017Y0078658D01*
X0103968Y0078352D01*
X0103927Y0078045D01*
X0103893Y0077737D01*
X0103866Y0077428D01*
X0103847Y0077119D01*
X0103836Y0076810D01*
X0103832Y0076500D01*
X0103836Y0076190D01*
X0103847Y0075881D01*
X0103866Y0075572D01*
X0103893Y0075263D01*
X0103927Y0074955D01*
X0103968Y0074648D01*
X0104017Y0074342D01*
X0104074Y0074038D01*
X0104138Y0073735D01*
X0104209Y0073433D01*
X0104287Y0073134D01*
X0104373Y0072836D01*
X0104467Y0072541D01*
X0104567Y0072248D01*
X0104675Y0071957D01*
X0104789Y0071669D01*
X0104911Y0071384D01*
X0105039Y0071103D01*
X0105175Y0070824D01*
X0105317Y0070549D01*
X0105466Y0070277D01*
X0105621Y0070009D01*
X0105783Y0069745D01*
X0105952Y0069485D01*
X0106126Y0069229D01*
X0106307Y0068978D01*
X0106494Y0068731D01*
X0106687Y0068489D01*
X0106886Y0068251D01*
X0107090Y0068018D01*
X0107301Y0067791D01*
X0107516Y0067569D01*
X0107737Y0067352D01*
X0107964Y0067140D01*
X0108195Y0066934D01*
X0108431Y0066734D01*
X0108673Y0066540D01*
X0108918Y0066351D01*
X0109169Y0066169D01*
X0109424Y0065993D01*
X0109683Y0065823D01*
X0109946Y0065659D01*
X0110213Y0065502D01*
X0110484Y0065352D01*
X0110758Y0065208D01*
X0111036Y0065071D01*
X0111317Y0064941D01*
X0111601Y0064818D01*
X0111888Y0064701D01*
X0112178Y0064592D01*
X0112470Y0064490D01*
X0112765Y0064395D01*
X0113062Y0064307D01*
X0113361Y0064227D01*
X0113662Y0064154D01*
X0113965Y0064088D01*
X0114269Y0064030D01*
X0114575Y0063979D01*
X0114882Y0063936D01*
X0115189Y0063900D01*
X0115498Y0063872D01*
X0115807Y0063851D01*
X0116116Y0063838D01*
X0116426Y0063832D01*
X0116736Y0063834D01*
X0117045Y0063844D01*
X0117355Y0063861D01*
X0117663Y0063886D01*
X0117971Y0063918D01*
X0118279Y0063957D01*
X0118585Y0064005D01*
X0118890Y0064059D01*
X0119193Y0064122D01*
X0119495Y0064191D01*
X0119795Y0064268D01*
X0120093Y0064352D01*
X0120389Y0064444D01*
X0120683Y0064542D01*
X0120974Y0064648D01*
X0121262Y0064761D01*
X0121548Y0064881D01*
X0121830Y0065008D01*
X0122110Y0065142D01*
X0122386Y0065282D01*
X0122658Y0065430D01*
X0122927Y0065583D01*
X0123192Y0065744D01*
X0123453Y0065911D01*
X0123710Y0066084D01*
X0123962Y0066263D01*
X0124211Y0066449D01*
X0124454Y0066640D01*
X0124693Y0066838D01*
X0124926Y0067041D01*
X0125155Y0067250D01*
X0125379Y0067464D01*
X0125597Y0067684D01*
X0125810Y0067909D01*
X0126017Y0068139D01*
X0126219Y0068374D01*
X0126414Y0068614D01*
X0126604Y0068859D01*
X0126529Y0068916D01*
X0126341Y0068673D01*
X0126146Y0068434D01*
X0125946Y0068201D01*
X0125741Y0067973D01*
X0125529Y0067749D01*
X0125313Y0067531D01*
X0125091Y0067318D01*
X0124864Y0067111D01*
X0124632Y0066909D01*
X0124395Y0066713D01*
X0124153Y0066523D01*
X0123907Y0066339D01*
X0123656Y0066161D01*
X0123401Y0065989D01*
X0123142Y0065824D01*
X0122879Y0065664D01*
X0122612Y0065512D01*
X0122342Y0065365D01*
X0122068Y0065226D01*
X0121791Y0065093D01*
X0121510Y0064967D01*
X0121227Y0064848D01*
X0120940Y0064736D01*
X0120651Y0064631D01*
X0120360Y0064533D01*
X0120066Y0064442D01*
X0119770Y0064359D01*
X0119473Y0064282D01*
X0119173Y0064213D01*
X0118872Y0064152D01*
X0118569Y0064097D01*
X0118265Y0064051D01*
X0117960Y0064011D01*
X0117655Y0063979D01*
X0117348Y0063955D01*
X0117041Y0063938D01*
X0116734Y0063928D01*
X0116426Y0063926D01*
X0116119Y0063932D01*
X0115812Y0063945D01*
X0115505Y0063965D01*
X0115199Y0063994D01*
X0114893Y0064029D01*
X0114589Y0064072D01*
X0114286Y0064123D01*
X0113984Y0064180D01*
X0113683Y0064246D01*
X0113384Y0064318D01*
X0113088Y0064398D01*
X0112793Y0064485D01*
X0112500Y0064579D01*
X0112210Y0064681D01*
X0111922Y0064789D01*
X0111637Y0064904D01*
X0111355Y0065027D01*
X0111076Y0065156D01*
X0110800Y0065292D01*
X0110528Y0065435D01*
X0110259Y0065584D01*
X0109994Y0065740D01*
X0109733Y0065902D01*
X0109476Y0066071D01*
X0109223Y0066246D01*
X0108975Y0066427D01*
X0108731Y0066614D01*
X0108491Y0066807D01*
X0108257Y0067005D01*
X0108027Y0067210D01*
X0107802Y0067420D01*
X0107583Y0067635D01*
X0107369Y0067856D01*
X0107160Y0068081D01*
X0106957Y0068312D01*
X0106760Y0068548D01*
X0106568Y0068789D01*
X0106383Y0069034D01*
X0106203Y0069283D01*
X0106030Y0069537D01*
X0105863Y0069795D01*
X0105702Y0070057D01*
X0105548Y0070323D01*
X0105400Y0070593D01*
X0105259Y0070866D01*
X0105124Y0071143D01*
X0104997Y0071422D01*
X0104876Y0071705D01*
X0104762Y0071991D01*
X0104656Y0072279D01*
X0104556Y0072570D01*
X0104463Y0072863D01*
X0104378Y0073159D01*
X0104300Y0073456D01*
X0104229Y0073755D01*
X0104166Y0074056D01*
X0104110Y0074358D01*
X0104061Y0074662D01*
X0104020Y0074967D01*
X0103986Y0075272D01*
X0103960Y0075578D01*
X0103941Y0075885D01*
X0103930Y0076193D01*
X0103926Y0076500D01*
X0103930Y0076807D01*
X0103941Y0077115D01*
X0103960Y0077422D01*
X0103986Y0077728D01*
X0104020Y0078033D01*
X0104061Y0078338D01*
X0104110Y0078642D01*
X0104166Y0078944D01*
X0104229Y0079245D01*
X0104300Y0079544D01*
X0104378Y0079841D01*
X0104463Y0080137D01*
X0104556Y0080430D01*
X0104656Y0080721D01*
X0104762Y0081009D01*
X0104876Y0081295D01*
X0104997Y0081578D01*
X0105124Y0081857D01*
X0105259Y0082134D01*
X0105400Y0082407D01*
X0105548Y0082677D01*
X0105702Y0082943D01*
X0105863Y0083205D01*
X0106030Y0083463D01*
X0106203Y0083717D01*
X0106383Y0083966D01*
X0106568Y0084211D01*
X0106760Y0084452D01*
X0106957Y0084688D01*
X0107160Y0084919D01*
X0107369Y0085144D01*
X0107583Y0085365D01*
X0107802Y0085580D01*
X0108027Y0085790D01*
X0108257Y0085995D01*
X0108491Y0086193D01*
X0108731Y0086386D01*
X0108975Y0086573D01*
X0109223Y0086754D01*
X0109476Y0086929D01*
X0109733Y0087098D01*
X0109994Y0087260D01*
X0110259Y0087416D01*
X0110528Y0087565D01*
X0110800Y0087708D01*
X0111076Y0087844D01*
X0111355Y0087973D01*
X0111637Y0088096D01*
X0111922Y0088211D01*
X0112210Y0088319D01*
X0112500Y0088421D01*
X0112793Y0088515D01*
X0113088Y0088602D01*
X0113384Y0088682D01*
X0113683Y0088754D01*
X0113984Y0088820D01*
X0114286Y0088877D01*
X0114589Y0088928D01*
X0114893Y0088971D01*
X0115199Y0089006D01*
X0115505Y0089035D01*
X0115812Y0089055D01*
X0116119Y0089068D01*
X0116426Y0089074D01*
X0116734Y0089072D01*
X0117041Y0089062D01*
X0117348Y0089045D01*
X0117655Y0089021D01*
X0117960Y0088989D01*
X0118265Y0088949D01*
X0118569Y0088903D01*
X0118872Y0088848D01*
X0119173Y0088787D01*
X0119473Y0088718D01*
X0119770Y0088641D01*
X0120066Y0088558D01*
X0120360Y0088467D01*
X0120651Y0088369D01*
X0120940Y0088264D01*
X0121227Y0088152D01*
X0121510Y0088033D01*
X0121791Y0087907D01*
X0122068Y0087774D01*
X0122342Y0087635D01*
X0122612Y0087488D01*
X0122879Y0087336D01*
X0123142Y0087176D01*
X0123401Y0087011D01*
X0123656Y0086839D01*
X0123907Y0086661D01*
X0124153Y0086477D01*
X0124395Y0086287D01*
X0124632Y0086091D01*
X0124864Y0085889D01*
X0125091Y0085682D01*
X0125313Y0085469D01*
X0125529Y0085251D01*
X0125741Y0085027D01*
X0125946Y0084799D01*
X0126146Y0084566D01*
X0126341Y0084327D01*
X0126529Y0084084D01*
X0126454Y0084028D01*
X0126267Y0084269D01*
X0126074Y0084506D01*
X0125875Y0084737D01*
X0125671Y0084964D01*
X0125462Y0085186D01*
X0125247Y0085402D01*
X0125026Y0085613D01*
X0124801Y0085819D01*
X0124571Y0086019D01*
X0124335Y0086214D01*
X0124096Y0086402D01*
X0123851Y0086585D01*
X0123602Y0086762D01*
X0123349Y0086932D01*
X0123092Y0087097D01*
X0122831Y0087255D01*
X0122566Y0087406D01*
X0122298Y0087551D01*
X0122026Y0087690D01*
X0121751Y0087822D01*
X0121472Y0087947D01*
X0121191Y0088065D01*
X0120907Y0088176D01*
X0120620Y0088280D01*
X0120331Y0088378D01*
X0120039Y0088468D01*
X0119746Y0088551D01*
X0119450Y0088626D01*
X0119153Y0088695D01*
X0118854Y0088756D01*
X0118553Y0088810D01*
X0118252Y0088856D01*
X0117949Y0088896D01*
X0117646Y0088927D01*
X0117341Y0088952D01*
X0117037Y0088968D01*
X0116732Y0088978D01*
X0116427Y0088980D01*
X0116122Y0088974D01*
X0115817Y0088961D01*
X0115512Y0088941D01*
X0115208Y0088913D01*
X0114905Y0088878D01*
X0114603Y0088835D01*
X0114302Y0088785D01*
X0114002Y0088728D01*
X0113704Y0088663D01*
X0113408Y0088591D01*
X0113113Y0088512D01*
X0112820Y0088425D01*
X0112530Y0088332D01*
X0112242Y0088231D01*
X0111956Y0088123D01*
X0111673Y0088009D01*
X0111393Y0087887D01*
X0111116Y0087759D01*
X0110843Y0087624D01*
X0110573Y0087483D01*
X0110306Y0087334D01*
X0110043Y0087180D01*
X0109784Y0087019D01*
X0109528Y0086851D01*
X0109277Y0086678D01*
X0109031Y0086498D01*
X0108789Y0086312D01*
X0108551Y0086121D01*
X0108318Y0085924D01*
X0108090Y0085721D01*
X0107867Y0085512D01*
X0107649Y0085299D01*
X0107437Y0085080D01*
X0107230Y0084856D01*
X0107028Y0084626D01*
X0106832Y0084392D01*
X0106642Y0084154D01*
X0106458Y0083910D01*
X0106280Y0083663D01*
X0106108Y0083411D01*
X0105942Y0083154D01*
X0105783Y0082894D01*
X0105629Y0082630D01*
X0105483Y0082363D01*
X0105343Y0082092D01*
X0105209Y0081817D01*
X0105083Y0081540D01*
X0104963Y0081259D01*
X0104850Y0080975D01*
X0104744Y0080689D01*
X0104645Y0080401D01*
X0104553Y0080110D01*
X0104469Y0079816D01*
X0104391Y0079521D01*
X0104321Y0079224D01*
X0104258Y0078926D01*
X0104202Y0078626D01*
X0104154Y0078324D01*
X0104113Y0078022D01*
X0104080Y0077719D01*
X0104054Y0077415D01*
X0104035Y0077110D01*
X0104024Y0076805D01*
X0104020Y0076500D01*
X0104024Y0076195D01*
X0104035Y0075890D01*
X0104054Y0075585D01*
X0104080Y0075281D01*
X0104113Y0074978D01*
X0104154Y0074676D01*
X0104202Y0074374D01*
X0104258Y0074074D01*
X0104321Y0073776D01*
X0104391Y0073479D01*
X0104469Y0073184D01*
X0104553Y0072890D01*
X0104645Y0072599D01*
X0104744Y0072311D01*
X0104850Y0072025D01*
X0104963Y0071741D01*
X0105083Y0071460D01*
X0105209Y0071183D01*
X0105343Y0070908D01*
X0105483Y0070637D01*
X0105629Y0070370D01*
X0105783Y0070106D01*
X0105942Y0069846D01*
X0106108Y0069589D01*
X0106280Y0069337D01*
X0106458Y0069090D01*
X0106642Y0068846D01*
X0106832Y0068608D01*
X0107028Y0068374D01*
X0107230Y0068144D01*
X0107437Y0067920D01*
X0107649Y0067701D01*
X0107867Y0067488D01*
X0108090Y0067279D01*
X0108318Y0067076D01*
X0108551Y0066879D01*
X0108789Y0066688D01*
X0109031Y0066502D01*
X0109277Y0066322D01*
X0109528Y0066149D01*
X0109784Y0065981D01*
X0110043Y0065820D01*
X0110306Y0065666D01*
X0110573Y0065517D01*
X0110843Y0065376D01*
X0111116Y0065241D01*
X0111393Y0065113D01*
X0111673Y0064991D01*
X0111956Y0064877D01*
X0112242Y0064769D01*
X0112530Y0064668D01*
X0112820Y0064575D01*
X0113113Y0064488D01*
X0113408Y0064409D01*
X0113704Y0064337D01*
X0114002Y0064272D01*
X0114302Y0064215D01*
X0114603Y0064165D01*
X0114905Y0064122D01*
X0115208Y0064087D01*
X0115512Y0064059D01*
X0115817Y0064039D01*
X0116122Y0064026D01*
X0116427Y0064020D01*
X0116732Y0064022D01*
X0117037Y0064032D01*
X0117341Y0064048D01*
X0117646Y0064073D01*
X0117949Y0064104D01*
X0118252Y0064144D01*
X0118553Y0064190D01*
X0118854Y0064244D01*
X0119153Y0064305D01*
X0119450Y0064374D01*
X0119746Y0064449D01*
X0120039Y0064532D01*
X0120331Y0064622D01*
X0120620Y0064720D01*
X0120907Y0064824D01*
X0121191Y0064935D01*
X0121472Y0065053D01*
X0121751Y0065178D01*
X0122026Y0065310D01*
X0122298Y0065449D01*
X0122566Y0065594D01*
X0122831Y0065745D01*
X0123092Y0065903D01*
X0123349Y0066068D01*
X0123602Y0066238D01*
X0123851Y0066415D01*
X0124096Y0066598D01*
X0124335Y0066786D01*
X0124571Y0066981D01*
X0124801Y0067181D01*
X0125026Y0067387D01*
X0125247Y0067598D01*
X0125462Y0067814D01*
X0125671Y0068036D01*
X0125875Y0068263D01*
X0126074Y0068494D01*
X0126267Y0068731D01*
X0126454Y0068972D01*
X0126379Y0069028D01*
X0126193Y0068789D01*
X0126002Y0068554D01*
X0125805Y0068325D01*
X0125602Y0068100D01*
X0125394Y0067879D01*
X0125180Y0067665D01*
X0124962Y0067455D01*
X0124738Y0067251D01*
X0124510Y0067052D01*
X0124276Y0066859D01*
X0124038Y0066672D01*
X0123796Y0066491D01*
X0123549Y0066315D01*
X0123298Y0066146D01*
X0123042Y0065983D01*
X0122783Y0065826D01*
X0122520Y0065676D01*
X0122254Y0065532D01*
X0121984Y0065394D01*
X0121711Y0065263D01*
X0121435Y0065139D01*
X0121155Y0065022D01*
X0120873Y0064912D01*
X0120589Y0064808D01*
X0120302Y0064712D01*
X0120012Y0064622D01*
X0119721Y0064540D01*
X0119428Y0064465D01*
X0119132Y0064397D01*
X0118836Y0064336D01*
X0118538Y0064283D01*
X0118238Y0064237D01*
X0117938Y0064198D01*
X0117637Y0064166D01*
X0117335Y0064142D01*
X0117032Y0064125D01*
X0116730Y0064116D01*
X0116427Y0064114D01*
X0116124Y0064120D01*
X0115822Y0064133D01*
X0115519Y0064153D01*
X0115218Y0064181D01*
X0114917Y0064216D01*
X0114617Y0064258D01*
X0114318Y0064308D01*
X0114021Y0064365D01*
X0113725Y0064429D01*
X0113431Y0064500D01*
X0113138Y0064579D01*
X0112848Y0064665D01*
X0112559Y0064758D01*
X0112274Y0064857D01*
X0111990Y0064964D01*
X0111710Y0065078D01*
X0111432Y0065198D01*
X0111157Y0065326D01*
X0110885Y0065460D01*
X0110617Y0065600D01*
X0110352Y0065747D01*
X0110091Y0065901D01*
X0109834Y0066061D01*
X0109581Y0066227D01*
X0109332Y0066399D01*
X0109087Y0066577D01*
X0108846Y0066762D01*
X0108611Y0066952D01*
X0108380Y0067147D01*
X0108153Y0067349D01*
X0107932Y0067555D01*
X0107716Y0067768D01*
X0107505Y0067985D01*
X0107300Y0068207D01*
X0107100Y0068435D01*
X0106905Y0068667D01*
X0106717Y0068904D01*
X0106534Y0069146D01*
X0106357Y0069391D01*
X0106186Y0069642D01*
X0106022Y0069896D01*
X0105863Y0070154D01*
X0105711Y0070416D01*
X0105566Y0070681D01*
X0105427Y0070950D01*
X0105294Y0071223D01*
X0105169Y0071498D01*
X0105050Y0071777D01*
X0104938Y0072058D01*
X0104833Y0072342D01*
X0104734Y0072629D01*
X0104643Y0072918D01*
X0104559Y0073209D01*
X0104482Y0073502D01*
X0104413Y0073796D01*
X0104350Y0074093D01*
X0104295Y0074390D01*
X0104247Y0074689D01*
X0104206Y0074989D01*
X0104173Y0075291D01*
X0104147Y0075592D01*
X0104129Y0075895D01*
X0104118Y0076197D01*
X0104114Y0076500D01*
X0104118Y0076803D01*
X0104129Y0077105D01*
X0104147Y0077408D01*
X0104173Y0077709D01*
X0104206Y0078011D01*
X0104247Y0078311D01*
X0104295Y0078610D01*
X0104350Y0078907D01*
X0104413Y0079204D01*
X0104482Y0079498D01*
X0104559Y0079791D01*
X0104643Y0080082D01*
X0104734Y0080371D01*
X0104833Y0080658D01*
X0104938Y0080942D01*
X0105050Y0081223D01*
X0105169Y0081502D01*
X0105294Y0081777D01*
X0105427Y0082050D01*
X0105566Y0082319D01*
X0105711Y0082584D01*
X0105863Y0082846D01*
X0106022Y0083104D01*
X0106186Y0083358D01*
X0106357Y0083609D01*
X0106534Y0083854D01*
X0106717Y0084096D01*
X0106905Y0084333D01*
X0107100Y0084565D01*
X0107300Y0084793D01*
X0107505Y0085015D01*
X0107716Y0085232D01*
X0107932Y0085445D01*
X0108153Y0085651D01*
X0108380Y0085853D01*
X0108611Y0086048D01*
X0108846Y0086238D01*
X0109087Y0086423D01*
X0109332Y0086601D01*
X0109581Y0086773D01*
X0109834Y0086939D01*
X0110091Y0087099D01*
X0110352Y0087253D01*
X0110617Y0087400D01*
X0110885Y0087540D01*
X0111157Y0087674D01*
X0111432Y0087802D01*
X0111710Y0087922D01*
X0111990Y0088036D01*
X0112274Y0088143D01*
X0112559Y0088242D01*
X0112848Y0088335D01*
X0113138Y0088421D01*
X0113431Y0088500D01*
X0113725Y0088571D01*
X0114021Y0088635D01*
X0114318Y0088692D01*
X0114617Y0088742D01*
X0114917Y0088784D01*
X0115218Y0088819D01*
X0115519Y0088847D01*
X0115822Y0088867D01*
X0116124Y0088880D01*
X0116427Y0088886D01*
X0116730Y0088884D01*
X0117032Y0088875D01*
X0117335Y0088858D01*
X0117637Y0088834D01*
X0117938Y0088802D01*
X0118238Y0088763D01*
X0118538Y0088717D01*
X0118836Y0088664D01*
X0119132Y0088603D01*
X0119428Y0088535D01*
X0119721Y0088460D01*
X0120012Y0088378D01*
X0120302Y0088288D01*
X0120589Y0088192D01*
X0120873Y0088088D01*
X0121155Y0087978D01*
X0121435Y0087861D01*
X0121711Y0087737D01*
X0121984Y0087606D01*
X0122254Y0087468D01*
X0122520Y0087324D01*
X0122783Y0087174D01*
X0123042Y0087017D01*
X0123298Y0086854D01*
X0123549Y0086685D01*
X0123796Y0086509D01*
X0124038Y0086328D01*
X0124276Y0086141D01*
X0124510Y0085948D01*
X0124738Y0085749D01*
X0124962Y0085545D01*
X0125180Y0085335D01*
X0125394Y0085121D01*
X0125602Y0084900D01*
X0125805Y0084675D01*
X0126002Y0084446D01*
X0126193Y0084211D01*
X0126379Y0083972D01*
X0126304Y0083915D01*
X0126119Y0084153D01*
X0125929Y0084385D01*
X0125734Y0084614D01*
X0125533Y0084837D01*
X0125326Y0085055D01*
X0125114Y0085269D01*
X0124897Y0085477D01*
X0124675Y0085679D01*
X0124448Y0085876D01*
X0124217Y0086068D01*
X0123981Y0086254D01*
X0123740Y0086434D01*
X0123495Y0086608D01*
X0123246Y0086776D01*
X0122992Y0086938D01*
X0122735Y0087093D01*
X0122474Y0087242D01*
X0122210Y0087385D01*
X0121942Y0087522D01*
X0121671Y0087651D01*
X0121397Y0087774D01*
X0121120Y0087891D01*
X0120840Y0088000D01*
X0120557Y0088103D01*
X0120273Y0088199D01*
X0119985Y0088287D01*
X0119696Y0088369D01*
X0119405Y0088444D01*
X0119112Y0088511D01*
X0118818Y0088572D01*
X0118522Y0088625D01*
X0118225Y0088670D01*
X0117927Y0088709D01*
X0117628Y0088740D01*
X0117328Y0088764D01*
X0117028Y0088781D01*
X0116728Y0088790D01*
X0116427Y0088792D01*
X0116127Y0088786D01*
X0115826Y0088774D01*
X0115527Y0088753D01*
X0115227Y0088726D01*
X0114929Y0088691D01*
X0114631Y0088649D01*
X0114335Y0088600D01*
X0114040Y0088543D01*
X0113746Y0088479D01*
X0113454Y0088409D01*
X0113164Y0088331D01*
X0112875Y0088245D01*
X0112589Y0088153D01*
X0112305Y0088054D01*
X0112024Y0087948D01*
X0111746Y0087835D01*
X0111470Y0087716D01*
X0111197Y0087589D01*
X0110928Y0087456D01*
X0110662Y0087317D01*
X0110399Y0087171D01*
X0110140Y0087019D01*
X0109884Y0086860D01*
X0109633Y0086695D01*
X0109386Y0086524D01*
X0109143Y0086347D01*
X0108904Y0086164D01*
X0108670Y0085976D01*
X0108441Y0085782D01*
X0108217Y0085582D01*
X0107997Y0085377D01*
X0107783Y0085166D01*
X0107573Y0084950D01*
X0107369Y0084730D01*
X0107171Y0084504D01*
X0106978Y0084273D01*
X0106791Y0084038D01*
X0106609Y0083799D01*
X0106434Y0083555D01*
X0106264Y0083306D01*
X0106101Y0083054D01*
X0105944Y0082798D01*
X0105793Y0082538D01*
X0105649Y0082274D01*
X0105511Y0082007D01*
X0105379Y0081737D01*
X0105255Y0081464D01*
X0105137Y0081187D01*
X0105026Y0080908D01*
X0104921Y0080626D01*
X0104824Y0080342D01*
X0104733Y0080055D01*
X0104650Y0079766D01*
X0104574Y0079476D01*
X0104504Y0079183D01*
X0104442Y0078889D01*
X0104388Y0078594D01*
X0104340Y0078297D01*
X0104300Y0077999D01*
X0104267Y0077700D01*
X0104241Y0077401D01*
X0104223Y0077101D01*
X0104212Y0076801D01*
X0104208Y0076500D01*
X0104212Y0076199D01*
X0104223Y0075899D01*
X0104241Y0075599D01*
X0104267Y0075300D01*
X0104300Y0075001D01*
X0104340Y0074703D01*
X0104388Y0074406D01*
X0104442Y0074111D01*
X0104504Y0073817D01*
X0104574Y0073524D01*
X0104650Y0073234D01*
X0104733Y0072945D01*
X0104824Y0072658D01*
X0104921Y0072374D01*
X0105026Y0072092D01*
X0105137Y0071813D01*
X0105255Y0071536D01*
X0105379Y0071263D01*
X0105511Y0070993D01*
X0105649Y0070726D01*
X0105793Y0070462D01*
X0105944Y0070202D01*
X0106101Y0069946D01*
X0106264Y0069694D01*
X0106434Y0069445D01*
X0106609Y0069201D01*
X0106791Y0068962D01*
X0106978Y0068727D01*
X0107171Y0068496D01*
X0107369Y0068270D01*
X0107573Y0068050D01*
X0107783Y0067834D01*
X0107997Y0067623D01*
X0108217Y0067418D01*
X0108441Y0067218D01*
X0108670Y0067024D01*
X0108904Y0066836D01*
X0109143Y0066653D01*
X0109386Y0066476D01*
X0109633Y0066305D01*
X0109884Y0066140D01*
X0110140Y0065981D01*
X0110399Y0065829D01*
X0110662Y0065683D01*
X0110928Y0065544D01*
X0111197Y0065411D01*
X0111470Y0065284D01*
X0111746Y0065165D01*
X0112024Y0065052D01*
X0112305Y0064946D01*
X0112589Y0064847D01*
X0112875Y0064755D01*
X0113164Y0064669D01*
X0113454Y0064591D01*
X0113746Y0064521D01*
X0114040Y0064457D01*
X0114335Y0064400D01*
X0114631Y0064351D01*
X0114929Y0064309D01*
X0115227Y0064274D01*
X0115527Y0064247D01*
X0115826Y0064226D01*
X0116127Y0064214D01*
X0116427Y0064208D01*
X0116728Y0064210D01*
X0117028Y0064219D01*
X0117328Y0064236D01*
X0117628Y0064260D01*
X0117927Y0064291D01*
X0118225Y0064330D01*
X0118522Y0064375D01*
X0118818Y0064428D01*
X0119112Y0064489D01*
X0119405Y0064556D01*
X0119696Y0064631D01*
X0119985Y0064713D01*
X0120273Y0064801D01*
X0120557Y0064897D01*
X0120840Y0065000D01*
X0121120Y0065109D01*
X0121397Y0065226D01*
X0121671Y0065349D01*
X0121942Y0065478D01*
X0122210Y0065615D01*
X0122474Y0065758D01*
X0122735Y0065907D01*
X0122992Y0066062D01*
X0123246Y0066224D01*
X0123495Y0066392D01*
X0123740Y0066566D01*
X0123981Y0066746D01*
X0124217Y0066932D01*
X0124448Y0067124D01*
X0124675Y0067321D01*
X0124897Y0067523D01*
X0125114Y0067731D01*
X0125326Y0067945D01*
X0125533Y0068163D01*
X0125734Y0068386D01*
X0125929Y0068615D01*
X0126119Y0068847D01*
X0126304Y0069085D01*
X0126228Y0069141D01*
X0126046Y0068906D01*
X0125857Y0068675D01*
X0125663Y0068448D01*
X0125463Y0068226D01*
X0125258Y0068010D01*
X0125048Y0067798D01*
X0124833Y0067592D01*
X0124613Y0067391D01*
X0124387Y0067195D01*
X0124158Y0067005D01*
X0123923Y0066821D01*
X0123684Y0066642D01*
X0123441Y0066469D01*
X0123194Y0066303D01*
X0122942Y0066142D01*
X0122687Y0065988D01*
X0122428Y0065840D01*
X0122166Y0065698D01*
X0121900Y0065563D01*
X0121631Y0065434D01*
X0121359Y0065312D01*
X0121084Y0065196D01*
X0120806Y0065087D01*
X0120526Y0064986D01*
X0120243Y0064891D01*
X0119958Y0064803D01*
X0119671Y0064722D01*
X0119383Y0064647D01*
X0119092Y0064581D01*
X0118800Y0064521D01*
X0118506Y0064468D01*
X0118211Y0064423D01*
X0117916Y0064384D01*
X0117619Y0064353D01*
X0117322Y0064330D01*
X0117024Y0064313D01*
X0116726Y0064304D01*
X0116428Y0064302D01*
X0116129Y0064308D01*
X0115831Y0064320D01*
X0115534Y0064340D01*
X0115237Y0064368D01*
X0114941Y0064402D01*
X0114645Y0064444D01*
X0114351Y0064493D01*
X0114058Y0064549D01*
X0113767Y0064612D01*
X0113477Y0064683D01*
X0113189Y0064760D01*
X0112903Y0064844D01*
X0112619Y0064936D01*
X0112337Y0065034D01*
X0112058Y0065139D01*
X0111782Y0065251D01*
X0111508Y0065370D01*
X0111238Y0065495D01*
X0110970Y0065627D01*
X0110706Y0065766D01*
X0110445Y0065911D01*
X0110188Y0066062D01*
X0109935Y0066219D01*
X0109686Y0066383D01*
X0109440Y0066553D01*
X0109199Y0066728D01*
X0108962Y0066910D01*
X0108730Y0067097D01*
X0108503Y0067289D01*
X0108280Y0067488D01*
X0108062Y0067691D01*
X0107849Y0067900D01*
X0107641Y0068114D01*
X0107439Y0068334D01*
X0107242Y0068557D01*
X0107051Y0068786D01*
X0106865Y0069020D01*
X0106685Y0069257D01*
X0106511Y0069499D01*
X0106343Y0069746D01*
X0106181Y0069996D01*
X0106025Y0070250D01*
X0105875Y0070508D01*
X0105732Y0070770D01*
X0105595Y0071035D01*
X0105464Y0071303D01*
X0105341Y0071574D01*
X0105224Y0071849D01*
X0105113Y0072126D01*
X0105010Y0072406D01*
X0104913Y0072688D01*
X0104823Y0072972D01*
X0104741Y0073259D01*
X0104665Y0073547D01*
X0104596Y0073837D01*
X0104535Y0074129D01*
X0104480Y0074422D01*
X0104433Y0074717D01*
X0104393Y0075012D01*
X0104360Y0075309D01*
X0104335Y0075606D01*
X0104317Y0075904D01*
X0104306Y0076202D01*
X0104302Y0076500D01*
X0104306Y0076798D01*
X0104317Y0077096D01*
X0104335Y0077394D01*
X0104360Y0077691D01*
X0104393Y0077988D01*
X0104433Y0078283D01*
X0104480Y0078578D01*
X0104535Y0078871D01*
X0104596Y0079163D01*
X0104665Y0079453D01*
X0104741Y0079741D01*
X0104823Y0080028D01*
X0104913Y0080312D01*
X0105010Y0080594D01*
X0105113Y0080874D01*
X0105224Y0081151D01*
X0105341Y0081426D01*
X0105464Y0081697D01*
X0105595Y0081965D01*
X0105732Y0082230D01*
X0105875Y0082492D01*
X0106025Y0082750D01*
X0106181Y0083004D01*
X0106343Y0083254D01*
X0106511Y0083501D01*
X0106685Y0083743D01*
X0106865Y0083980D01*
X0107051Y0084214D01*
X0107242Y0084443D01*
X0107439Y0084666D01*
X0107641Y0084886D01*
X0107849Y0085100D01*
X0108062Y0085309D01*
X0108280Y0085512D01*
X0108503Y0085711D01*
X0108730Y0085903D01*
X0108962Y0086090D01*
X0109199Y0086272D01*
X0109440Y0086447D01*
X0109686Y0086617D01*
X0109935Y0086781D01*
X0110188Y0086938D01*
X0110445Y0087089D01*
X0110706Y0087234D01*
X0110970Y0087373D01*
X0111238Y0087505D01*
X0111508Y0087630D01*
X0111782Y0087749D01*
X0112058Y0087861D01*
X0112337Y0087966D01*
X0112619Y0088064D01*
X0112903Y0088156D01*
X0113189Y0088240D01*
X0113477Y0088317D01*
X0113767Y0088388D01*
X0114058Y0088451D01*
X0114351Y0088507D01*
X0114645Y0088556D01*
X0114941Y0088598D01*
X0115237Y0088632D01*
X0115534Y0088660D01*
X0115831Y0088680D01*
X0116129Y0088692D01*
X0116428Y0088698D01*
X0116726Y0088696D01*
X0117024Y0088687D01*
X0117322Y0088670D01*
X0117619Y0088647D01*
X0117916Y0088616D01*
X0118211Y0088577D01*
X0118506Y0088532D01*
X0118800Y0088479D01*
X0119092Y0088419D01*
X0119383Y0088353D01*
X0119671Y0088278D01*
X0119958Y0088197D01*
X0120243Y0088109D01*
X0120526Y0088014D01*
X0120806Y0087913D01*
X0121084Y0087804D01*
X0121359Y0087688D01*
X0121631Y0087566D01*
X0121900Y0087437D01*
X0122166Y0087302D01*
X0122428Y0087160D01*
X0122687Y0087012D01*
X0122942Y0086858D01*
X0123194Y0086697D01*
X0123441Y0086531D01*
X0123684Y0086358D01*
X0123923Y0086179D01*
X0124158Y0085995D01*
X0124387Y0085805D01*
X0124613Y0085609D01*
X0124833Y0085408D01*
X0125048Y0085202D01*
X0125258Y0084990D01*
X0125463Y0084774D01*
X0125663Y0084552D01*
X0125857Y0084325D01*
X0126046Y0084094D01*
X0126228Y0083859D01*
X0126153Y0083802D01*
X0125972Y0084036D01*
X0125785Y0084265D01*
X0125592Y0084490D01*
X0125394Y0084710D01*
X0125191Y0084925D01*
X0124982Y0085135D01*
X0124768Y0085340D01*
X0124550Y0085539D01*
X0124326Y0085733D01*
X0124098Y0085922D01*
X0123866Y0086105D01*
X0123629Y0086282D01*
X0123387Y0086453D01*
X0123142Y0086619D01*
X0122893Y0086778D01*
X0122639Y0086931D01*
X0122383Y0087078D01*
X0122122Y0087219D01*
X0121858Y0087353D01*
X0121591Y0087481D01*
X0121321Y0087602D01*
X0121049Y0087717D01*
X0120773Y0087825D01*
X0120495Y0087926D01*
X0120214Y0088020D01*
X0119932Y0088107D01*
X0119647Y0088188D01*
X0119360Y0088261D01*
X0119072Y0088328D01*
X0118782Y0088387D01*
X0118490Y0088439D01*
X0118198Y0088484D01*
X0117904Y0088522D01*
X0117610Y0088553D01*
X0117315Y0088577D01*
X0117020Y0088593D01*
X0116724Y0088602D01*
X0116428Y0088604D01*
X0116132Y0088598D01*
X0115836Y0088586D01*
X0115541Y0088566D01*
X0115246Y0088539D01*
X0114952Y0088505D01*
X0114659Y0088463D01*
X0114367Y0088415D01*
X0114077Y0088359D01*
X0113788Y0088296D01*
X0113500Y0088226D01*
X0113214Y0088149D01*
X0112930Y0088066D01*
X0112649Y0087975D01*
X0112369Y0087877D01*
X0112092Y0087773D01*
X0111818Y0087662D01*
X0111547Y0087544D01*
X0111278Y0087420D01*
X0111013Y0087289D01*
X0110751Y0087151D01*
X0110492Y0087008D01*
X0110237Y0086858D01*
X0109985Y0086701D01*
X0109738Y0086539D01*
X0109495Y0086371D01*
X0109255Y0086196D01*
X0109020Y0086016D01*
X0108790Y0085831D01*
X0108564Y0085639D01*
X0108343Y0085443D01*
X0108127Y0085241D01*
X0107916Y0085033D01*
X0107710Y0084821D01*
X0107509Y0084603D01*
X0107313Y0084381D01*
X0107123Y0084154D01*
X0106939Y0083923D01*
X0106761Y0083687D01*
X0106588Y0083447D01*
X0106421Y0083202D01*
X0106260Y0082954D01*
X0106105Y0082701D01*
X0105957Y0082445D01*
X0105815Y0082186D01*
X0105679Y0081923D01*
X0105549Y0081657D01*
X0105427Y0081388D01*
X0105310Y0081115D01*
X0105201Y0080840D01*
X0105098Y0080563D01*
X0105002Y0080283D01*
X0104913Y0080001D01*
X0104831Y0079716D01*
X0104756Y0079430D01*
X0104688Y0079142D01*
X0104627Y0078853D01*
X0104573Y0078562D01*
X0104526Y0078269D01*
X0104486Y0077976D01*
X0104454Y0077682D01*
X0104429Y0077387D01*
X0104410Y0077092D01*
X0104400Y0076796D01*
X0104396Y0076500D01*
X0104400Y0076204D01*
X0104410Y0075908D01*
X0104429Y0075613D01*
X0104454Y0075318D01*
X0104486Y0075024D01*
X0104526Y0074731D01*
X0104573Y0074438D01*
X0104627Y0074147D01*
X0104688Y0073858D01*
X0104756Y0073570D01*
X0104831Y0073284D01*
X0104913Y0072999D01*
X0105002Y0072717D01*
X0105098Y0072437D01*
X0105201Y0072160D01*
X0105310Y0071885D01*
X0105427Y0071612D01*
X0105549Y0071343D01*
X0105679Y0071077D01*
X0105815Y0070814D01*
X0105957Y0070555D01*
X0106105Y0070299D01*
X0106260Y0070046D01*
X0106421Y0069798D01*
X0106588Y0069553D01*
X0106761Y0069313D01*
X0106939Y0069077D01*
X0107123Y0068846D01*
X0107313Y0068619D01*
X0107509Y0068397D01*
X0107710Y0068179D01*
X0107916Y0067967D01*
X0108127Y0067759D01*
X0108343Y0067557D01*
X0108564Y0067361D01*
X0108790Y0067169D01*
X0109020Y0066984D01*
X0109255Y0066804D01*
X0109495Y0066629D01*
X0109738Y0066461D01*
X0109985Y0066299D01*
X0110237Y0066142D01*
X0110492Y0065992D01*
X0110751Y0065849D01*
X0111013Y0065711D01*
X0111278Y0065580D01*
X0111547Y0065456D01*
X0111818Y0065338D01*
X0112092Y0065227D01*
X0112369Y0065123D01*
X0112649Y0065025D01*
X0112930Y0064934D01*
X0113214Y0064851D01*
X0113500Y0064774D01*
X0113788Y0064704D01*
X0114077Y0064641D01*
X0114367Y0064585D01*
X0114659Y0064537D01*
X0114952Y0064495D01*
X0115246Y0064461D01*
X0115541Y0064434D01*
X0115836Y0064414D01*
X0116132Y0064402D01*
X0116428Y0064396D01*
X0116724Y0064398D01*
X0117020Y0064407D01*
X0117315Y0064423D01*
X0117610Y0064447D01*
X0117904Y0064478D01*
X0118198Y0064516D01*
X0118490Y0064561D01*
X0118782Y0064613D01*
X0119072Y0064672D01*
X0119360Y0064739D01*
X0119647Y0064812D01*
X0119932Y0064893D01*
X0120214Y0064980D01*
X0120495Y0065074D01*
X0120773Y0065175D01*
X0121049Y0065283D01*
X0121321Y0065398D01*
X0121591Y0065519D01*
X0121858Y0065647D01*
X0122122Y0065781D01*
X0122383Y0065922D01*
X0122639Y0066069D01*
X0122893Y0066222D01*
X0123142Y0066381D01*
X0123387Y0066547D01*
X0123629Y0066718D01*
X0123866Y0066895D01*
X0124098Y0067078D01*
X0124326Y0067267D01*
X0124550Y0067461D01*
X0124768Y0067660D01*
X0124982Y0067865D01*
X0125191Y0068075D01*
X0125394Y0068290D01*
X0125592Y0068510D01*
X0125785Y0068735D01*
X0125972Y0068964D01*
X0126153Y0069198D01*
D14*
X0106500Y0076500D02*
X0106503Y0076745D01*
X0106512Y0076991D01*
X0106527Y0077236D01*
X0106548Y0077480D01*
X0106575Y0077724D01*
X0106608Y0077967D01*
X0106647Y0078210D01*
X0106692Y0078451D01*
X0106743Y0078691D01*
X0106800Y0078930D01*
X0106862Y0079167D01*
X0106931Y0079403D01*
X0107005Y0079637D01*
X0107085Y0079869D01*
X0107170Y0080099D01*
X0107261Y0080327D01*
X0107358Y0080552D01*
X0107460Y0080776D01*
X0107568Y0080996D01*
X0107681Y0081214D01*
X0107799Y0081429D01*
X0107923Y0081641D01*
X0108051Y0081850D01*
X0108185Y0082056D01*
X0108324Y0082258D01*
X0108468Y0082457D01*
X0108617Y0082652D01*
X0108770Y0082844D01*
X0108928Y0083032D01*
X0109090Y0083216D01*
X0109258Y0083395D01*
X0109429Y0083571D01*
X0109605Y0083742D01*
X0109784Y0083910D01*
X0109968Y0084072D01*
X0110156Y0084230D01*
X0110348Y0084383D01*
X0110543Y0084532D01*
X0110742Y0084676D01*
X0110944Y0084815D01*
X0111150Y0084949D01*
X0111359Y0085077D01*
X0111571Y0085201D01*
X0111786Y0085319D01*
X0112004Y0085432D01*
X0112224Y0085540D01*
X0112448Y0085642D01*
X0112673Y0085739D01*
X0112901Y0085830D01*
X0113131Y0085915D01*
X0113363Y0085995D01*
X0113597Y0086069D01*
X0113833Y0086138D01*
X0114070Y0086200D01*
X0114309Y0086257D01*
X0114549Y0086308D01*
X0114790Y0086353D01*
X0115033Y0086392D01*
X0115276Y0086425D01*
X0115520Y0086452D01*
X0115764Y0086473D01*
X0116009Y0086488D01*
X0116255Y0086497D01*
X0116500Y0086500D01*
X0116745Y0086497D01*
X0116991Y0086488D01*
X0117236Y0086473D01*
X0117480Y0086452D01*
X0117724Y0086425D01*
X0117967Y0086392D01*
X0118210Y0086353D01*
X0118451Y0086308D01*
X0118691Y0086257D01*
X0118930Y0086200D01*
X0119167Y0086138D01*
X0119403Y0086069D01*
X0119637Y0085995D01*
X0119869Y0085915D01*
X0120099Y0085830D01*
X0120327Y0085739D01*
X0120552Y0085642D01*
X0120776Y0085540D01*
X0120996Y0085432D01*
X0121214Y0085319D01*
X0121429Y0085201D01*
X0121641Y0085077D01*
X0121850Y0084949D01*
X0122056Y0084815D01*
X0122258Y0084676D01*
X0122457Y0084532D01*
X0122652Y0084383D01*
X0122844Y0084230D01*
X0123032Y0084072D01*
X0123216Y0083910D01*
X0123395Y0083742D01*
X0123571Y0083571D01*
X0123742Y0083395D01*
X0123910Y0083216D01*
X0124072Y0083032D01*
X0124230Y0082844D01*
X0124383Y0082652D01*
X0124532Y0082457D01*
X0124676Y0082258D01*
X0124815Y0082056D01*
X0124949Y0081850D01*
X0125077Y0081641D01*
X0125201Y0081429D01*
X0125319Y0081214D01*
X0125432Y0080996D01*
X0125540Y0080776D01*
X0125642Y0080552D01*
X0125739Y0080327D01*
X0125830Y0080099D01*
X0125915Y0079869D01*
X0125995Y0079637D01*
X0126069Y0079403D01*
X0126138Y0079167D01*
X0126200Y0078930D01*
X0126257Y0078691D01*
X0126308Y0078451D01*
X0126353Y0078210D01*
X0126392Y0077967D01*
X0126425Y0077724D01*
X0126452Y0077480D01*
X0126473Y0077236D01*
X0126488Y0076991D01*
X0126497Y0076745D01*
X0126500Y0076500D01*
X0126497Y0076255D01*
X0126488Y0076009D01*
X0126473Y0075764D01*
X0126452Y0075520D01*
X0126425Y0075276D01*
X0126392Y0075033D01*
X0126353Y0074790D01*
X0126308Y0074549D01*
X0126257Y0074309D01*
X0126200Y0074070D01*
X0126138Y0073833D01*
X0126069Y0073597D01*
X0125995Y0073363D01*
X0125915Y0073131D01*
X0125830Y0072901D01*
X0125739Y0072673D01*
X0125642Y0072448D01*
X0125540Y0072224D01*
X0125432Y0072004D01*
X0125319Y0071786D01*
X0125201Y0071571D01*
X0125077Y0071359D01*
X0124949Y0071150D01*
X0124815Y0070944D01*
X0124676Y0070742D01*
X0124532Y0070543D01*
X0124383Y0070348D01*
X0124230Y0070156D01*
X0124072Y0069968D01*
X0123910Y0069784D01*
X0123742Y0069605D01*
X0123571Y0069429D01*
X0123395Y0069258D01*
X0123216Y0069090D01*
X0123032Y0068928D01*
X0122844Y0068770D01*
X0122652Y0068617D01*
X0122457Y0068468D01*
X0122258Y0068324D01*
X0122056Y0068185D01*
X0121850Y0068051D01*
X0121641Y0067923D01*
X0121429Y0067799D01*
X0121214Y0067681D01*
X0120996Y0067568D01*
X0120776Y0067460D01*
X0120552Y0067358D01*
X0120327Y0067261D01*
X0120099Y0067170D01*
X0119869Y0067085D01*
X0119637Y0067005D01*
X0119403Y0066931D01*
X0119167Y0066862D01*
X0118930Y0066800D01*
X0118691Y0066743D01*
X0118451Y0066692D01*
X0118210Y0066647D01*
X0117967Y0066608D01*
X0117724Y0066575D01*
X0117480Y0066548D01*
X0117236Y0066527D01*
X0116991Y0066512D01*
X0116745Y0066503D01*
X0116500Y0066500D01*
X0116255Y0066503D01*
X0116009Y0066512D01*
X0115764Y0066527D01*
X0115520Y0066548D01*
X0115276Y0066575D01*
X0115033Y0066608D01*
X0114790Y0066647D01*
X0114549Y0066692D01*
X0114309Y0066743D01*
X0114070Y0066800D01*
X0113833Y0066862D01*
X0113597Y0066931D01*
X0113363Y0067005D01*
X0113131Y0067085D01*
X0112901Y0067170D01*
X0112673Y0067261D01*
X0112448Y0067358D01*
X0112224Y0067460D01*
X0112004Y0067568D01*
X0111786Y0067681D01*
X0111571Y0067799D01*
X0111359Y0067923D01*
X0111150Y0068051D01*
X0110944Y0068185D01*
X0110742Y0068324D01*
X0110543Y0068468D01*
X0110348Y0068617D01*
X0110156Y0068770D01*
X0109968Y0068928D01*
X0109784Y0069090D01*
X0109605Y0069258D01*
X0109429Y0069429D01*
X0109258Y0069605D01*
X0109090Y0069784D01*
X0108928Y0069968D01*
X0108770Y0070156D01*
X0108617Y0070348D01*
X0108468Y0070543D01*
X0108324Y0070742D01*
X0108185Y0070944D01*
X0108051Y0071150D01*
X0107923Y0071359D01*
X0107799Y0071571D01*
X0107681Y0071786D01*
X0107568Y0072004D01*
X0107460Y0072224D01*
X0107358Y0072448D01*
X0107261Y0072673D01*
X0107170Y0072901D01*
X0107085Y0073131D01*
X0107005Y0073363D01*
X0106931Y0073597D01*
X0106862Y0073833D01*
X0106800Y0074070D01*
X0106743Y0074309D01*
X0106692Y0074549D01*
X0106647Y0074790D01*
X0106608Y0075033D01*
X0106575Y0075276D01*
X0106548Y0075520D01*
X0106527Y0075764D01*
X0106512Y0076009D01*
X0106503Y0076255D01*
X0106500Y0076500D01*
D15*
X0054886Y0026618D02*
X0050437Y0026618D01*
X0054886Y0026618D02*
X0054886Y0016382D01*
X0050437Y0016382D01*
X0054886Y0021500D02*
X0061264Y0021500D01*
X0032563Y0016382D02*
X0028114Y0016382D01*
X0028114Y0026618D01*
X0032563Y0026618D01*
X0028114Y0021500D02*
X0021736Y0021500D01*
D16*
X0113744Y0013783D02*
X0113746Y0013888D01*
X0113752Y0013993D01*
X0113762Y0014097D01*
X0113776Y0014201D01*
X0113794Y0014305D01*
X0113816Y0014407D01*
X0113841Y0014509D01*
X0113871Y0014610D01*
X0113904Y0014709D01*
X0113941Y0014807D01*
X0113982Y0014904D01*
X0114027Y0014999D01*
X0114075Y0015092D01*
X0114126Y0015184D01*
X0114182Y0015273D01*
X0114240Y0015360D01*
X0114302Y0015445D01*
X0114366Y0015528D01*
X0114434Y0015608D01*
X0114505Y0015685D01*
X0114579Y0015759D01*
X0114656Y0015831D01*
X0114735Y0015900D01*
X0114817Y0015965D01*
X0114901Y0016028D01*
X0114988Y0016087D01*
X0115077Y0016143D01*
X0115168Y0016196D01*
X0115261Y0016245D01*
X0115355Y0016290D01*
X0115451Y0016332D01*
X0115549Y0016370D01*
X0115648Y0016404D01*
X0115749Y0016435D01*
X0115850Y0016461D01*
X0115953Y0016484D01*
X0116056Y0016503D01*
X0116160Y0016518D01*
X0116264Y0016529D01*
X0116369Y0016536D01*
X0116474Y0016539D01*
X0116579Y0016538D01*
X0116684Y0016533D01*
X0116788Y0016524D01*
X0116892Y0016511D01*
X0116996Y0016494D01*
X0117099Y0016473D01*
X0117201Y0016448D01*
X0117302Y0016420D01*
X0117401Y0016387D01*
X0117500Y0016351D01*
X0117597Y0016311D01*
X0117692Y0016268D01*
X0117786Y0016220D01*
X0117878Y0016170D01*
X0117968Y0016116D01*
X0118056Y0016058D01*
X0118141Y0015997D01*
X0118224Y0015933D01*
X0118305Y0015866D01*
X0118383Y0015796D01*
X0118458Y0015722D01*
X0118530Y0015647D01*
X0118600Y0015568D01*
X0118666Y0015487D01*
X0118730Y0015403D01*
X0118790Y0015317D01*
X0118846Y0015229D01*
X0118900Y0015138D01*
X0118950Y0015046D01*
X0118996Y0014952D01*
X0119039Y0014856D01*
X0119078Y0014758D01*
X0119113Y0014660D01*
X0119144Y0014559D01*
X0119172Y0014458D01*
X0119196Y0014356D01*
X0119216Y0014253D01*
X0119232Y0014149D01*
X0119244Y0014045D01*
X0119252Y0013940D01*
X0119256Y0013835D01*
X0119256Y0013731D01*
X0119252Y0013626D01*
X0119244Y0013521D01*
X0119232Y0013417D01*
X0119216Y0013313D01*
X0119196Y0013210D01*
X0119172Y0013108D01*
X0119144Y0013007D01*
X0119113Y0012906D01*
X0119078Y0012808D01*
X0119039Y0012710D01*
X0118996Y0012614D01*
X0118950Y0012520D01*
X0118900Y0012428D01*
X0118846Y0012337D01*
X0118790Y0012249D01*
X0118730Y0012163D01*
X0118666Y0012079D01*
X0118600Y0011998D01*
X0118530Y0011919D01*
X0118458Y0011844D01*
X0118383Y0011770D01*
X0118305Y0011700D01*
X0118224Y0011633D01*
X0118141Y0011569D01*
X0118056Y0011508D01*
X0117968Y0011450D01*
X0117878Y0011396D01*
X0117786Y0011346D01*
X0117692Y0011298D01*
X0117597Y0011255D01*
X0117500Y0011215D01*
X0117401Y0011179D01*
X0117302Y0011146D01*
X0117201Y0011118D01*
X0117099Y0011093D01*
X0116996Y0011072D01*
X0116892Y0011055D01*
X0116788Y0011042D01*
X0116684Y0011033D01*
X0116579Y0011028D01*
X0116474Y0011027D01*
X0116369Y0011030D01*
X0116264Y0011037D01*
X0116160Y0011048D01*
X0116056Y0011063D01*
X0115953Y0011082D01*
X0115850Y0011105D01*
X0115749Y0011131D01*
X0115648Y0011162D01*
X0115549Y0011196D01*
X0115451Y0011234D01*
X0115355Y0011276D01*
X0115261Y0011321D01*
X0115168Y0011370D01*
X0115077Y0011423D01*
X0114988Y0011479D01*
X0114901Y0011538D01*
X0114817Y0011601D01*
X0114735Y0011666D01*
X0114656Y0011735D01*
X0114579Y0011807D01*
X0114505Y0011881D01*
X0114434Y0011958D01*
X0114366Y0012038D01*
X0114302Y0012121D01*
X0114240Y0012206D01*
X0114182Y0012293D01*
X0114126Y0012382D01*
X0114075Y0012474D01*
X0114027Y0012567D01*
X0113982Y0012662D01*
X0113941Y0012759D01*
X0113904Y0012857D01*
X0113871Y0012956D01*
X0113841Y0013057D01*
X0113816Y0013159D01*
X0113794Y0013261D01*
X0113776Y0013365D01*
X0113762Y0013469D01*
X0113752Y0013573D01*
X0113746Y0013678D01*
X0113744Y0013783D01*
X0113744Y0049217D02*
X0113746Y0049322D01*
X0113752Y0049427D01*
X0113762Y0049531D01*
X0113776Y0049635D01*
X0113794Y0049739D01*
X0113816Y0049841D01*
X0113841Y0049943D01*
X0113871Y0050044D01*
X0113904Y0050143D01*
X0113941Y0050241D01*
X0113982Y0050338D01*
X0114027Y0050433D01*
X0114075Y0050526D01*
X0114126Y0050618D01*
X0114182Y0050707D01*
X0114240Y0050794D01*
X0114302Y0050879D01*
X0114366Y0050962D01*
X0114434Y0051042D01*
X0114505Y0051119D01*
X0114579Y0051193D01*
X0114656Y0051265D01*
X0114735Y0051334D01*
X0114817Y0051399D01*
X0114901Y0051462D01*
X0114988Y0051521D01*
X0115077Y0051577D01*
X0115168Y0051630D01*
X0115261Y0051679D01*
X0115355Y0051724D01*
X0115451Y0051766D01*
X0115549Y0051804D01*
X0115648Y0051838D01*
X0115749Y0051869D01*
X0115850Y0051895D01*
X0115953Y0051918D01*
X0116056Y0051937D01*
X0116160Y0051952D01*
X0116264Y0051963D01*
X0116369Y0051970D01*
X0116474Y0051973D01*
X0116579Y0051972D01*
X0116684Y0051967D01*
X0116788Y0051958D01*
X0116892Y0051945D01*
X0116996Y0051928D01*
X0117099Y0051907D01*
X0117201Y0051882D01*
X0117302Y0051854D01*
X0117401Y0051821D01*
X0117500Y0051785D01*
X0117597Y0051745D01*
X0117692Y0051702D01*
X0117786Y0051654D01*
X0117878Y0051604D01*
X0117968Y0051550D01*
X0118056Y0051492D01*
X0118141Y0051431D01*
X0118224Y0051367D01*
X0118305Y0051300D01*
X0118383Y0051230D01*
X0118458Y0051156D01*
X0118530Y0051081D01*
X0118600Y0051002D01*
X0118666Y0050921D01*
X0118730Y0050837D01*
X0118790Y0050751D01*
X0118846Y0050663D01*
X0118900Y0050572D01*
X0118950Y0050480D01*
X0118996Y0050386D01*
X0119039Y0050290D01*
X0119078Y0050192D01*
X0119113Y0050094D01*
X0119144Y0049993D01*
X0119172Y0049892D01*
X0119196Y0049790D01*
X0119216Y0049687D01*
X0119232Y0049583D01*
X0119244Y0049479D01*
X0119252Y0049374D01*
X0119256Y0049269D01*
X0119256Y0049165D01*
X0119252Y0049060D01*
X0119244Y0048955D01*
X0119232Y0048851D01*
X0119216Y0048747D01*
X0119196Y0048644D01*
X0119172Y0048542D01*
X0119144Y0048441D01*
X0119113Y0048340D01*
X0119078Y0048242D01*
X0119039Y0048144D01*
X0118996Y0048048D01*
X0118950Y0047954D01*
X0118900Y0047862D01*
X0118846Y0047771D01*
X0118790Y0047683D01*
X0118730Y0047597D01*
X0118666Y0047513D01*
X0118600Y0047432D01*
X0118530Y0047353D01*
X0118458Y0047278D01*
X0118383Y0047204D01*
X0118305Y0047134D01*
X0118224Y0047067D01*
X0118141Y0047003D01*
X0118056Y0046942D01*
X0117968Y0046884D01*
X0117878Y0046830D01*
X0117786Y0046780D01*
X0117692Y0046732D01*
X0117597Y0046689D01*
X0117500Y0046649D01*
X0117401Y0046613D01*
X0117302Y0046580D01*
X0117201Y0046552D01*
X0117099Y0046527D01*
X0116996Y0046506D01*
X0116892Y0046489D01*
X0116788Y0046476D01*
X0116684Y0046467D01*
X0116579Y0046462D01*
X0116474Y0046461D01*
X0116369Y0046464D01*
X0116264Y0046471D01*
X0116160Y0046482D01*
X0116056Y0046497D01*
X0115953Y0046516D01*
X0115850Y0046539D01*
X0115749Y0046565D01*
X0115648Y0046596D01*
X0115549Y0046630D01*
X0115451Y0046668D01*
X0115355Y0046710D01*
X0115261Y0046755D01*
X0115168Y0046804D01*
X0115077Y0046857D01*
X0114988Y0046913D01*
X0114901Y0046972D01*
X0114817Y0047035D01*
X0114735Y0047100D01*
X0114656Y0047169D01*
X0114579Y0047241D01*
X0114505Y0047315D01*
X0114434Y0047392D01*
X0114366Y0047472D01*
X0114302Y0047555D01*
X0114240Y0047640D01*
X0114182Y0047727D01*
X0114126Y0047816D01*
X0114075Y0047908D01*
X0114027Y0048001D01*
X0113982Y0048096D01*
X0113941Y0048193D01*
X0113904Y0048291D01*
X0113871Y0048390D01*
X0113841Y0048491D01*
X0113816Y0048593D01*
X0113794Y0048695D01*
X0113776Y0048799D01*
X0113762Y0048903D01*
X0113752Y0049007D01*
X0113746Y0049112D01*
X0113744Y0049217D01*
M02*
